<svg xmlns="http://www.w3.org/2000/svg" viewBox="0 0 513 513"><defs><style>.cls-1{fill:#f3ecc2;}.cls-2{fill:#e8505b;}.cls-3{opacity:0.07;}.cls-4{fill:#3342ae;}.cls-5{fill:#5766ce;}.cls-6{fill:#3d4ec6;}.cls-7{fill:#d0e8fe;}.cls-8{fill:#a9d8fc;}.cls-9{fill:#f6d100;}.cls-10{fill:#f2ba00;}.cls-11{fill:#b9e746;}.cls-12{fill:#9ed369;}.cls-13{font-size:98.27px;fill:#fff;font-family:JetBrainsMono-Medium, JetBrains Mono;font-weight:500;letter-spacing:-0.26em;}</style></defs><title>Asset 4</title><g id="Layer_2" data-name="Layer 2"><g id="Layer_1-2" data-name="Layer 1"><rect class="cls-1" width="513" height="513"/><path class="cls-2" d="M431.5,20.5V443.35a256,256,0,0,1-350,0V20.5a20,20,0,0,1,20-20h310A20,20,0,0,1,431.5,20.5Z"/><g class="cls-3"><path d="M431.5,443.34h0a256,256,0,0,1-350,0V20.5a20,20,0,0,1,20-20h40V406.43a36.91,36.91,0,0,0,36.91,36.91Z"/></g><path class="cls-4" d="M101.5,232.75V30.5a10,10,0,0,1,10-10h290a10,10,0,0,1,10,10V232.75a10,10,0,0,1-7.5,9.69,590.46,590.46,0,0,1-295,0,10,10,0,0,1-7.5-9.69Z"/><path class="cls-5" d="M141.5,60.5h230V209h-230Z"/><path class="cls-6" d="M181.5,60.5h-40V209h230V169H290A108.51,108.51,0,0,1,181.5,60.5Z"/><path class="cls-7" d="M221.5,332.25h-20v-20a20,20,0,0,0-40,0v20h-20a20,20,0,0,0,0,40h20v20a20,20,0,0,0,40,0v-20h20a20,20,0,0,0,0-40Z"/><path class="cls-8" d="M161.5,352.25a20,20,0,0,1,20-20h20v-20a20,20,0,0,0-40,0v20h-20a20,20,0,0,0,0,40h20v20a20,20,0,0,0,40,0v-20h-20A20,20,0,0,1,161.5,352.25Z"/><circle class="cls-9" cx="367.29" cy="325.09" r="24.21"/><path class="cls-10" d="M382.29,334.3a24.21,24.21,0,0,1-22.89-32.1A24.21,24.21,0,1,0,390.18,333a24,24,0,0,1-7.89,1.33Z"/><circle class="cls-11" cx="312.96" cy="379.42" r="24.21"/><path class="cls-12" d="M328,388.63a24.21,24.21,0,0,1-22.89-32.1,24.21,24.21,0,1,0,30.78,30.78,24.28,24.28,0,0,1-7.89,1.32Z"/><path class="cls-6" d="M229,478.34H184a7.5,7.5,0,1,1,0-15h45a7.5,7.5,0,0,1,0,15Z"/><path class="cls-4" d="M206.5,470.84a7.5,7.5,0,0,1,7.5-7.5H184a7.5,7.5,0,1,0,0,15h30A7.5,7.5,0,0,1,206.5,470.84Z"/><path class="cls-6" d="M329,478.34H284a7.5,7.5,0,0,1,0-15h45a7.5,7.5,0,0,1,0,15Z"/><path class="cls-4" d="M306.5,470.84a7.5,7.5,0,0,1,7.5-7.5H284a7.5,7.5,0,0,0,0,15h30A7.5,7.5,0,0,1,306.5,470.84Z"/><text class="cls-13" transform="translate(162.11 169.49)">O.T.B</text></g></g></svg>