<svg xmlns="http://www.w3.org/2000/svg" viewBox="0 0 513 513"><defs><style>.cls-1{fill:#f3ecc2;}.cls-2{fill:#e8505b;}.cls-3{opacity:0.07;}.cls-4{fill:#3342ae;}.cls-5{fill:#5766ce;}.cls-6{fill:#3d4ec6;}.cls-7{fill:#d0e8fe;}.cls-8{fill:#a9d8fc;}.cls-9{fill:#f6d100;}.cls-10{fill:#f2ba00;}.cls-11{fill:#b9e746;}.cls-12{fill:#9ed369;}.cls-13{fill:#fff;}</style></defs><title>Asset 6</title><g id="Layer_2" data-name="Layer 2"><g id="Layer_1-2" data-name="Layer 1"><rect class="cls-1" width="513" height="513" rx="50"/><path class="cls-2" d="M431.5,20.5V443.35a256,256,0,0,1-350,0V20.5a20,20,0,0,1,20-20h310A20,20,0,0,1,431.5,20.5Z"/><g class="cls-3"><path d="M431.5,443.34h0a256,256,0,0,1-350,0V20.5a20,20,0,0,1,20-20h40V406.43a36.91,36.91,0,0,0,36.91,36.91Z"/></g><path class="cls-4" d="M101.5,232.75V30.5a10,10,0,0,1,10-10h290a10,10,0,0,1,10,10V232.75a10,10,0,0,1-7.5,9.69,590.46,590.46,0,0,1-295,0,10,10,0,0,1-7.5-9.69Z"/><path class="cls-5" d="M141.5,60.5h230V209h-230Z"/><path class="cls-6" d="M181.5,60.5h-40V209h230V169H290A108.51,108.51,0,0,1,181.5,60.5Z"/><path class="cls-7" d="M221.5,332.25h-20v-20a20,20,0,0,0-40,0v20h-20a20,20,0,0,0,0,40h20v20a20,20,0,0,0,40,0v-20h20a20,20,0,0,0,0-40Z"/><path class="cls-8" d="M161.5,352.25a20,20,0,0,1,20-20h20v-20a20,20,0,0,0-40,0v20h-20a20,20,0,0,0,0,40h20v20a20,20,0,0,0,40,0v-20h-20A20,20,0,0,1,161.5,352.25Z"/><circle class="cls-9" cx="367.29" cy="325.09" r="24.21"/><path class="cls-10" d="M382.29,334.3a24.21,24.21,0,0,1-22.89-32.1A24.21,24.21,0,1,0,390.18,333a24,24,0,0,1-7.89,1.33Z"/><circle class="cls-11" cx="312.96" cy="379.42" r="24.21"/><path class="cls-12" d="M328,388.63a24.21,24.21,0,0,1-22.89-32.1,24.21,24.21,0,1,0,30.78,30.78,24.28,24.28,0,0,1-7.89,1.32Z"/><path class="cls-6" d="M229,478.34H184a7.5,7.5,0,1,1,0-15h45a7.5,7.5,0,0,1,0,15Z"/><path class="cls-4" d="M206.5,470.84a7.5,7.5,0,0,1,7.5-7.5H184a7.5,7.5,0,1,0,0,15h30A7.5,7.5,0,0,1,206.5,470.84Z"/><path class="cls-6" d="M329,478.34H284a7.5,7.5,0,0,1,0-15h45a7.5,7.5,0,0,1,0,15Z"/><path class="cls-4" d="M306.5,470.84a7.5,7.5,0,0,1,7.5-7.5H284a7.5,7.5,0,0,0,0,15h30A7.5,7.5,0,0,1,306.5,470.84Z"/><path class="cls-13" d="M191.59,170.47a27.11,27.11,0,0,1-9.38-1.52,20.32,20.32,0,0,1-7.13-4.32,19.33,19.33,0,0,1-4.57-6.78,23.17,23.17,0,0,1-1.62-8.8V119.17a23,23,0,0,1,1.62-8.84,19.41,19.41,0,0,1,4.57-6.73,20.34,20.34,0,0,1,7.13-4.33,29.73,29.73,0,0,1,18.77,0,20.29,20.29,0,0,1,7.12,4.33,19.27,19.27,0,0,1,4.57,6.73,23,23,0,0,1,1.62,8.84v29.88a23.17,23.17,0,0,1-1.62,8.8,18.93,18.93,0,0,1-4.62,6.78,20.86,20.86,0,0,1-7.17,4.32A26.86,26.86,0,0,1,191.59,170.47ZM179.7,149.05a11.9,11.9,0,1,0,23.78,0V119.17a11.82,11.82,0,0,0-3.24-8.74,13.17,13.17,0,0,0-17.3,0,11.82,11.82,0,0,0-3.24,8.74Z"/><path class="cls-13" d="M216.46,161.24a9.06,9.06,0,0,1,2.45-6.64,9.92,9.92,0,0,1,13.17,0,9.06,9.06,0,0,1,2.46,6.64,9.22,9.22,0,0,1-2.46,6.68,9.78,9.78,0,0,1-13.17,0A9.22,9.22,0,0,1,216.46,161.24Z"/><path class="cls-13" d="M234,108.46V98.73h50.71v9.73H264.9v61h-11v-61Z"/><path class="cls-13" d="M284.26,161.24a9.06,9.06,0,0,1,2.46-6.64,9.92,9.92,0,0,1,13.17,0,9.1,9.1,0,0,1,2.45,6.64,9.26,9.26,0,0,1-2.45,6.68,9.78,9.78,0,0,1-13.17,0A9.22,9.22,0,0,1,284.26,161.24Z"/><path class="cls-13" d="M305.68,98.73H327.4q10.43,0,16.32,4.92t5.89,13.56A15.09,15.09,0,0,1,346,127.63a14,14,0,0,1-9.69,4.52v.68q6.8.49,10.67,4.82t3.88,11.69q0,9.34-6,14.75t-16.56,5.4H305.68Zm21.62,29.88a11.57,11.57,0,0,0,8.16-2.8,10.86,10.86,0,0,0,.05-15c-2-1.87-4.73-2.8-8.21-2.8h-11v20.64Zm-11,9v22.5h11.2q5.81,0,9-3a10.77,10.77,0,0,0,3.25-8.31c0-3.53-1.09-6.29-3.25-8.25s-5.17-2.95-9-2.95Z"/></g></g></svg>
